<svg width="40" height="40" viewBox="0 0 40 40" fill="none" xmlns="http://www.w3.org/2000/svg">
<path d="M3.33325 14.99C3.33238 13.677 3.59051 12.3767 4.09287 11.1637C4.59522 9.95056 5.33194 8.84848 6.26084 7.92052C7.18973 6.99256 8.29255 6.25694 9.50614 5.7558C10.7197 5.25465 12.0203 4.99782 13.3333 5.00001H26.6666C32.1883 5.00001 36.6666 9.49168 36.6666 14.99V35H13.3333C7.81159 35 3.33325 30.5083 3.33325 25.01V14.99ZM33.3333 31.6667V14.99C33.3288 13.2242 32.6247 11.5321 31.3752 10.2844C30.1256 9.03668 28.4324 8.33511 26.6666 8.33335H13.3333C12.458 8.33115 11.5909 8.50176 10.7817 8.83539C9.97257 9.16902 9.23722 9.6591 8.61786 10.2775C7.99849 10.896 7.5073 11.6306 7.17246 12.4393C6.83762 13.2479 6.66571 14.1148 6.66659 14.99V25.01C6.671 26.7758 7.37511 28.468 8.62468 29.7157C9.87426 30.9634 11.5674 31.6649 13.3333 31.6667H33.3333ZM23.3333 18.3333H26.6666V21.6667H23.3333V18.3333ZM13.3333 18.3333H16.6666V21.6667H13.3333V18.3333Z" fill="white"/>
<path d="M3.33325 14.99C3.33238 13.677 3.59051 12.3767 4.09287 11.1637C4.59522 9.95056 5.33194 8.84848 6.26084 7.92052C7.18973 6.99256 8.29255 6.25694 9.50614 5.7558C10.7197 5.25465 12.0203 4.99782 13.3333 5.00001H26.6666C32.1883 5.00001 36.6666 9.49168 36.6666 14.99V35H13.3333C7.81159 35 3.33325 30.5083 3.33325 25.01V14.99ZM33.3333 31.6667V14.99C33.3288 13.2242 32.6247 11.5321 31.3752 10.2844C30.1256 9.03668 28.4324 8.33511 26.6666 8.33335H13.3333C12.458 8.33115 11.5909 8.50176 10.7817 8.83539C9.97257 9.16902 9.23722 9.6591 8.61786 10.2775C7.99849 10.896 7.5073 11.6306 7.17246 12.4393C6.83762 13.2479 6.66571 14.1148 6.66659 14.99V25.01C6.671 26.7758 7.37511 28.468 8.62468 29.7157C9.87426 30.9634 11.5674 31.6649 13.3333 31.6667H33.3333ZM23.3333 18.3333H26.6666V21.6667H23.3333V18.3333ZM13.3333 18.3333H16.6666V21.6667H13.3333V18.3333Z" fill="url(#paint0_linear)"/>
<defs>
<linearGradient id="paint0_linear" x1="19.9999" y1="5" x2="19.9999" y2="35" gradientUnits="userSpaceOnUse">
<stop stop-color="white"/>
<stop offset="1" stop-color="white" stop-opacity="0"/>
</linearGradient>
</defs>
</svg>
